{"accessors":[{"name":"Transportband.1-Mesh_positions","componentType":5126,"count":2085,"min":[-568.3442993164062,-660,-650],"max":[525,839.4137573242188,650],"type":"VEC3","bufferView":0,"byteOffset":0},{"name":"Transportband.1-Mesh_normals","componentType":5126,"count":2085,"min":[-1,-1,-1],"max":[1,1,1],"type":"VEC3","bufferView":0,"byteOffset":50040},{"name":"Transportband.1-Mesh_texcoords","componentType":5126,"count":2085,"min":[0,0],"max":[1,1],"type":"VEC2","bufferView":1,"byteOffset":0},{"name":"Transportband.1-Mesh_0_indices","componentType":5123,"count":936,"min":[0],"max":[343],"type":"SCALAR","bufferView":2,"byteOffset":0},{"name":"Transportband.1-Mesh_1_indices","componentType":5123,"count":7308,"min":[344],"max":[1740],"type":"SCALAR","bufferView":2,"byteOffset":1872},{"name":"Transportband.1-Mesh_2_indices","componentType":5123,"count":900,"min":[1741],"max":[2060],"type":"SCALAR","bufferView":2,"byteOffset":16488},{"name":"Transportband.1-Mesh_3_indices","componentType":5123,"count":36,"min":[2061],"max":[2084],"type":"SCALAR","bufferView":2,"byteOffset":18288},{"name":"Cube.1-Mesh_positions","componentType":5126,"count":24,"min":[-407.67840576171875,-104.21216583251953,23.416648864746094],"max":[-367.8478088378906,-81.56292724609375,43.416648864746094],"type":"VEC3","bufferView":0,"byteOffset":25020},{"name":"Cube.1-Mesh_normals","componentType":5126,"count":24,"min":[-0.9396927952766418,-0.9396926164627075,-1],"max":[0.9396927952766418,0.9396926164627075,1],"type":"VEC3","bufferView":0,"byteOffset":75060},{"name":"Cube.1-Mesh_texcoords","componentType":5126,"count":24,"min":[0,0],"max":[1,1],"type":"VEC2","bufferView":1,"byteOffset":16680},{"name":"Cube.1-Mesh_0_indices","componentType":5123,"count":36,"min":[0],"max":[23],"type":"SCALAR","bufferView":2,"byteOffset":18360},{"name":"Cube-Mesh_positions","componentType":5126,"count":24,"min":[47.45057678222656,-111.85958862304688,23.416648864746094],"max":[75.48440551757812,-73.30357360839844,43.416648864746094],"type":"VEC3","bufferView":0,"byteOffset":25308},{"name":"Cube-Mesh_normals","componentType":5126,"count":24,"min":[-0.8660253882408142,-0.8660252690315247,-1],"max":[0.8660253882408142,0.866025447845459,1],"type":"VEC3","bufferView":0,"byteOffset":75348},{"name":"Cube-Mesh_texcoords","componentType":5126,"count":24,"min":[0,0],"max":[1,1],"type":"VEC2","bufferView":1,"byteOffset":16872},{"name":"Cube-Mesh_0_indices","componentType":5123,"count":36,"min":[0],"max":[23],"type":"SCALAR","bufferView":2,"byteOffset":18432},{"name":"Cone-Mesh_positions","componentType":5126,"count":1055,"min":[-429.7773742675781,163.06248474121094,-275.940673828125],"max":[-87.02562713623047,839.4137573242188,66.81108856201172],"type":"VEC3","bufferView":0,"byteOffset":25596},{"name":"Cone-Mesh_normals","componentType":5126,"count":1055,"min":[-0.9874952435493469,-1,-0.9874952435493469],"max":[0.9874952435493469,1,0.9874952435493469],"type":"VEC3","bufferView":0,"byteOffset":75636},{"name":"Cone-Mesh_texcoords","componentType":5126,"count":1055,"min":[0,0],"max":[1,1],"type":"VEC2","bufferView":1,"byteOffset":17064},{"name":"Cone-Mesh_0_indices","componentType":5123,"count":5832,"min":[0],"max":[1054],"type":"SCALAR","bufferView":2,"byteOffset":18504},{"name":"Back_wall-Mesh_positions","componentType":5126,"count":24,"min":[-525,-660,-645],"max":[525,640,-595],"type":"VEC3","bufferView":0,"byteOffset":38256},{"name":"Back_wall-Mesh_normals","componentType":5126,"count":24,"min":[-1,-1,-1],"max":[1,1,1],"type":"VEC3","bufferView":0,"byteOffset":88296},{"name":"Back_wall-Mesh_texcoords","componentType":5126,"count":24,"min":[0,0],"max":[1,1],"type":"VEC2","bufferView":1,"byteOffset":25504},{"name":"Back_wall-Mesh_0_indices","componentType":5123,"count":36,"min":[0],"max":[23],"type":"SCALAR","bufferView":2,"byteOffset":30168},{"name":"Floor-Mesh_positions","componentType":5126,"count":24,"min":[-525,-355,-650],"max":[525,-305,650],"type":"VEC3","bufferView":0,"byteOffset":38544},{"name":"Floor-Mesh_normals","componentType":5126,"count":24,"min":[-1,-1,-1],"max":[1,1,1],"type":"VEC3","bufferView":0,"byteOffset":88584},{"name":"Floor-Mesh_texcoords","componentType":5126,"count":24,"min":[0,0],"max":[1,1],"type":"VEC2","bufferView":1,"byteOffset":25696},{"name":"Floor-Mesh_0_indices","componentType":5123,"count":36,"min":[0],"max":[23],"type":"SCALAR","bufferView":2,"byteOffset":30240},{"name":"Cylinder.1-Mesh_positions","componentType":5126,"count":148,"min":[-411.57598876953125,-310.3714904785156,-51.332393646240234],"max":[-363.54595947265625,-110.3714828491211,-3.3023765087127686],"type":"VEC3","bufferView":0,"byteOffset":38832},{"name":"Cylinder.1-Mesh_normals","componentType":5126,"count":148,"min":[-1,-1,-1],"max":[1,1,1],"type":"VEC3","bufferView":0,"byteOffset":88872},{"name":"Cylinder.1-Mesh_texcoords","componentType":5126,"count":148,"min":[0,0],"max":[1,1],"type":"VEC2","bufferView":1,"byteOffset":25888},{"name":"Cylinder.1-Mesh_0_indices","componentType":5123,"count":432,"min":[0],"max":[147],"type":"SCALAR","bufferView":2,"byteOffset":30312},{"name":"Cylinder-Mesh_positions","componentType":5126,"count":148,"min":[38.424015045166016,-310.3714904785156,-51.332393646240234],"max":[86.45403289794922,-110.3714828491211,-3.3023765087127686],"type":"VEC3","bufferView":0,"byteOffset":40608},{"name":"Cylinder-Mesh_normals","componentType":5126,"count":148,"min":[-1,-1,-1],"max":[1,1,1],"type":"VEC3","bufferView":0,"byteOffset":90648},{"name":"Cylinder-Mesh_texcoords","componentType":5126,"count":148,"min":[0,0],"max":[1,1],"type":"VEC2","bufferView":1,"byteOffset":27072},{"name":"Cylinder-Mesh_0_indices","componentType":5123,"count":432,"min":[0],"max":[147],"type":"SCALAR","bufferView":2,"byteOffset":31176},{"name":"Cylinder.3-Mesh_positions","componentType":5126,"count":148,"min":[-407.2945556640625,-111.40655517578125,-6.3755645751953125],"max":[-368.87054443359375,-72.9825439453125,40.65787124633789],"type":"VEC3","bufferView":0,"byteOffset":42384},{"name":"Cylinder.3-Mesh_normals","componentType":5126,"count":148,"min":[-1,-1,-1],"max":[1,1,1],"type":"VEC3","bufferView":0,"byteOffset":92424},{"name":"Cylinder.3-Mesh_texcoords","componentType":5126,"count":148,"min":[0,0],"max":[1,1],"type":"VEC2","bufferView":1,"byteOffset":28256},{"name":"Cylinder.3-Mesh_0_indices","componentType":5123,"count":432,"min":[0],"max":[147],"type":"SCALAR","bufferView":2,"byteOffset":32040},{"name":"Cylinder.2-Mesh_positions","componentType":5126,"count":148,"min":[42.266414642333984,-111.40655517578125,-6.3755645751953125],"max":[80.6904296875,-72.9825439453125,40.65787124633789],"type":"VEC3","bufferView":0,"byteOffset":44160},{"name":"Cylinder.2-Mesh_normals","componentType":5126,"count":148,"min":[-1,-1,-1],"max":[1,1,1],"type":"VEC3","bufferView":0,"byteOffset":94200},{"name":"Cylinder.2-Mesh_texcoords","componentType":5126,"count":148,"min":[0,0],"max":[1,1],"type":"VEC2","bufferView":1,"byteOffset":29440},{"name":"Cylinder.2-Mesh_0_indices","componentType":5123,"count":432,"min":[0],"max":[147],"type":"SCALAR","bufferView":2,"byteOffset":32904},{"name":"Cube.1_1-Mesh_positions","componentType":5126,"count":342,"min":[-568.3442993164062,-122.83723449707031,-249.2880401611328],"max":[273.2215270996094,-61.47871780395508,28.07954216003418],"type":"VEC3","bufferView":0,"byteOffset":45936},{"name":"Cube.1_1-Mesh_normals","componentType":5126,"count":342,"min":[-0.9938620328903198,-0.9930618405342102,-0.9938620924949646],"max":[0.9938621520996094,0.993061900138855,0.9938620924949646],"type":"VEC3","bufferView":0,"byteOffset":95976},{"name":"Cube.1_1-Mesh_texcoords","componentType":5126,"count":342,"min":[0,0],"max":[1,1],"type":"VEC2","bufferView":1,"byteOffset":30624},{"name":"Cube.1_1-Mesh_0_indices","componentType":5123,"count":1476,"min":[0],"max":[341],"type":"SCALAR","bufferView":2,"byteOffset":33768}],"asset":{"generator":"obj2gltf","version":"2.0"},"buffers":[{"name":"scene","byteLength":170160,"uri":"data:application/octet-stream;base64,"}],"bufferViews":[{"name":"bufferView_0","buffer":0,"byteLength":100080,"byteOffset":0,"byteStride":12,"target":34962},{"name":"bufferView_1","buffer":0,"byteLength":33360,"byteOffset":100080,"byteStride":8,"target":34962},{"name":"bufferView_2","buffer":0,"byteLength":36720,"byteOffset":133440,"target":34963}],"materials":[{"name":"Mat.2","pbrMetallicRoughness":{"baseColorFactor":[0.34000000357628,0.34000000357628,0.34000000357628,1],"metallicFactor":0,"roughnessFactor":0.95},"emissiveFactor":[0,0,0],"alphaMode":"OPAQUE","doubleSided":false},{"name":"Mat.1","pbrMetallicRoughness":{"baseColorFactor":[0.14000000059605,0.14000000059605,0.14000000059605,1],"metallicFactor":0,"roughnessFactor":1},"emissiveFactor":[0,0,0],"alphaMode":"OPAQUE","doubleSided":false},{"name":"Mat","pbrMetallicRoughness":{"baseColorFactor":[1,0.98600000143051,0.97000002861023,1],"metallicFactor":0,"roughnessFactor":0.95},"emissiveFactor":[0,0,0],"alphaMode":"OPAQUE","doubleSided":false},{"name":"Mat.3","pbrMetallicRoughness":{"baseColorFactor":[0.51999998092651,0.51999998092651,0.51999998092651,1],"metallicFactor":0,"roughnessFactor":0.95},"emissiveFactor":[0,0,0],"alphaMode":"OPAQUE","doubleSided":false}],"meshes":[{"name":"Transportband.1-Mesh","primitives":[{"attributes":{"POSITION":0,"NORMAL":1,"TEXCOORD_0":2},"indices":3,"material":0,"mode":4},{"attributes":{"POSITION":0,"NORMAL":1,"TEXCOORD_0":2},"indices":4,"material":1,"mode":4},{"attributes":{"POSITION":0,"NORMAL":1,"TEXCOORD_0":2},"indices":5,"material":2,"mode":4},{"attributes":{"POSITION":0,"NORMAL":1,"TEXCOORD_0":2},"indices":6,"material":3,"mode":4}]},{"name":"Cube.1-Mesh","primitives":[{"attributes":{"POSITION":7,"NORMAL":8,"TEXCOORD_0":9},"indices":10,"material":0,"mode":4}]},{"name":"Cube-Mesh","primitives":[{"attributes":{"POSITION":11,"NORMAL":12,"TEXCOORD_0":13},"indices":14,"material":0,"mode":4}]},{"name":"Cone-Mesh","primitives":[{"attributes":{"POSITION":15,"NORMAL":16,"TEXCOORD_0":17},"indices":18,"material":1,"mode":4}]},{"name":"Back_wall-Mesh","primitives":[{"attributes":{"POSITION":19,"NORMAL":20,"TEXCOORD_0":21},"indices":22,"material":2,"mode":4}]},{"name":"Floor-Mesh","primitives":[{"attributes":{"POSITION":23,"NORMAL":24,"TEXCOORD_0":25},"indices":26,"material":3,"mode":4}]},{"name":"Cylinder.1-Mesh","primitives":[{"attributes":{"POSITION":27,"NORMAL":28,"TEXCOORD_0":29},"indices":30,"material":0,"mode":4}]},{"name":"Cylinder-Mesh","primitives":[{"attributes":{"POSITION":31,"NORMAL":32,"TEXCOORD_0":33},"indices":34,"material":0,"mode":4}]},{"name":"Cylinder.3-Mesh","primitives":[{"attributes":{"POSITION":35,"NORMAL":36,"TEXCOORD_0":37},"indices":38,"material":2,"mode":4}]},{"name":"Cylinder.2-Mesh","primitives":[{"attributes":{"POSITION":39,"NORMAL":40,"TEXCOORD_0":41},"indices":42,"material":2,"mode":4}]},{"name":"Cube.1_1-Mesh","primitives":[{"attributes":{"POSITION":43,"NORMAL":44,"TEXCOORD_0":45},"indices":46,"material":1,"mode":4}]}],"nodes":[{"name":"Transportband.1","mesh":0},{"name":"Cube.1","mesh":1},{"name":"Cube","mesh":2},{"name":"Cone","mesh":3},{"name":"Back_wall","mesh":4},{"name":"Floor","mesh":5},{"name":"Cylinder.1","mesh":6},{"name":"Cylinder","mesh":7},{"name":"Cylinder.3","mesh":8},{"name":"Cylinder.2","mesh":9},{"name":"Cube.1_1","mesh":10}],"scene":0,"scenes":[{"nodes":[0,1,2,3,4,5,6,7,8,9,10]}]}
