{"accessors":[{"name":"Scene.1-Mesh_positions","componentType":5126,"count":77862,"min":[-2512.410888671875,-365.7417907714844,-5467.73681640625],"max":[2499.999755859375,274.64703369140625,656.3480834960938],"type":"VEC3","bufferView":0,"byteOffset":0},{"name":"Scene.1-Mesh_normals","componentType":5126,"count":77862,"min":[-1,-1,-1],"max":[1,1,1],"type":"VEC3","bufferView":0,"byteOffset":934344},{"name":"Scene.1-Mesh_texcoords","componentType":5126,"count":77862,"min":[-0.19967620074748993,0],"max":[1,1.1746690273284912],"type":"VEC2","bufferView":1,"byteOffset":0},{"name":"Scene.1-Mesh_0_indices","componentType":5125,"count":60,"min":[0],"max":[39],"type":"SCALAR","bufferView":2,"byteOffset":0},{"name":"Scene.1-Mesh_1_indices","componentType":5125,"count":108,"min":[40],"max":[105],"type":"SCALAR","bufferView":2,"byteOffset":240},{"name":"Scene.1-Mesh_2_indices","componentType":5125,"count":1740,"min":[106],"max":[1427],"type":"SCALAR","bufferView":2,"byteOffset":672},{"name":"Scene.1-Mesh_3_indices","componentType":5125,"count":930,"min":[1428],"max":[2145],"type":"SCALAR","bufferView":2,"byteOffset":7632},{"name":"Scene.1-Mesh_4_indices","componentType":5125,"count":1080,"min":[2146],"max":[3225],"type":"SCALAR","bufferView":2,"byteOffset":11352},{"name":"Scene.1-Mesh_5_indices","componentType":5125,"count":2136,"min":[3226],"max":[4683],"type":"SCALAR","bufferView":2,"byteOffset":15672},{"name":"Scene.1-Mesh_6_indices","componentType":5125,"count":420,"min":[4684],"max":[5015],"type":"SCALAR","bufferView":2,"byteOffset":24216},{"name":"Scene.1-Mesh_7_indices","componentType":5125,"count":30,"min":[5016],"max":[5033],"type":"SCALAR","bufferView":2,"byteOffset":25896},{"name":"Scene.1-Mesh_8_indices","componentType":5125,"count":96,"min":[5034],"max":[5093],"type":"SCALAR","bufferView":2,"byteOffset":26016},{"name":"Scene.1-Mesh_9_indices","componentType":5125,"count":864,"min":[5094],"max":[5389],"type":"SCALAR","bufferView":2,"byteOffset":26400},{"name":"Scene.1-Mesh_10_indices","componentType":5125,"count":2472,"min":[5390],"max":[6933],"type":"SCALAR","bufferView":2,"byteOffset":29856},{"name":"Scene.1-Mesh_11_indices","componentType":5125,"count":2304,"min":[6934],"max":[8365],"type":"SCALAR","bufferView":2,"byteOffset":39744},{"name":"Scene.1-Mesh_12_indices","componentType":5125,"count":1968,"min":[8366],"max":[9589],"type":"SCALAR","bufferView":2,"byteOffset":48960},{"name":"Scene.1-Mesh_13_indices","componentType":5125,"count":234,"min":[9590],"max":[9721],"type":"SCALAR","bufferView":2,"byteOffset":56832},{"name":"Scene.1-Mesh_14_indices","componentType":5125,"count":3816,"min":[9722],"max":[13009],"type":"SCALAR","bufferView":2,"byteOffset":57768},{"name":"Scene.1-Mesh_15_indices","componentType":5125,"count":18,"min":[13010],"max":[13021],"type":"SCALAR","bufferView":2,"byteOffset":73032},{"name":"Scene.1-Mesh_16_indices","componentType":5125,"count":2220,"min":[13022],"max":[15241],"type":"SCALAR","bufferView":2,"byteOffset":73104},{"name":"Scene.1-Mesh_17_indices","componentType":5125,"count":2592,"min":[11524],"max":[17279],"type":"SCALAR","bufferView":2,"byteOffset":81984},{"name":"Scene.1-Mesh_18_indices","componentType":5125,"count":54720,"min":[17280],"max":[70479],"type":"SCALAR","bufferView":2,"byteOffset":92352},{"name":"Scene.1-Mesh_19_indices","componentType":5125,"count":6384,"min":[70480],"max":[74127],"type":"SCALAR","bufferView":2,"byteOffset":311232},{"name":"Scene.1-Mesh_20_indices","componentType":5125,"count":1728,"min":[74128],"max":[74719],"type":"SCALAR","bufferView":2,"byteOffset":336768},{"name":"Scene.1-Mesh_21_indices","componentType":5125,"count":1530,"min":[74720],"max":[75079],"type":"SCALAR","bufferView":2,"byteOffset":343680},{"name":"Scene.1-Mesh_22_indices","componentType":5125,"count":2808,"min":[75080],"max":[75819],"type":"SCALAR","bufferView":2,"byteOffset":349800},{"name":"Scene.1-Mesh_23_indices","componentType":5125,"count":54,"min":[75820],"max":[75845],"type":"SCALAR","bufferView":2,"byteOffset":361032},{"name":"Scene.1-Mesh_24_indices","componentType":5125,"count":11346,"min":[75846],"max":[77861],"type":"SCALAR","bufferView":2,"byteOffset":361248}],"asset":{"generator":"obj2gltf","version":"2.0"},"buffers":[{"name":"Scene","byteLength":2898216,"uri":"data:application/octet-stream;base64,"}],"bufferViews":[{"name":"bufferView_0","buffer":0,"byteLength":1868688,"byteOffset":0,"byteStride":12,"target":34962},{"name":"bufferView_1","buffer":0,"byteLength":622896,"byteOffset":1868688,"byteStride":8,"target":34962},{"name":"bufferView_2","buffer":0,"byteLength":406632,"byteOffset":2491584,"target":34963}],"materials":[{"name":"mat12","pbrMetallicRoughness":{"baseColorFactor":[1,0.9200000166893,0.23000000417233,1],"metallicFactor":0,"roughnessFactor":0.95},"emissiveFactor":[0,0,0],"alphaMode":"OPAQUE","doubleSided":false},{"name":"mat20","pbrMetallicRoughness":{"baseColorFactor":[0.46999999880791,0.33000001311302,0.28000000119209,1],"metallicFactor":0,"roughnessFactor":0.95},"emissiveFactor":[0,0,0],"alphaMode":"OPAQUE","doubleSided":false},{"name":"mat21","pbrMetallicRoughness":{"baseColorFactor":[1,1,1,1],"metallicFactor":0,"roughnessFactor":0.95},"emissiveFactor":[0,0,0],"alphaMode":"OPAQUE","doubleSided":false},{"name":"mat8","pbrMetallicRoughness":{"baseColorFactor":[0.95999997854233,0.25999999046326,0.20999999344349,1],"metallicFactor":0,"roughnessFactor":0.95},"emissiveFactor":[0,0,0],"alphaMode":"OPAQUE","doubleSided":false},{"name":"mat2","pbrMetallicRoughness":{"baseColorFactor":[0.40000000596046,0.23000000417233,0.72000002861023,1],"metallicFactor":0,"roughnessFactor":0.95},"emissiveFactor":[0,0,0],"alphaMode":"OPAQUE","doubleSided":false},{"name":"mat23","pbrMetallicRoughness":{"baseColorFactor":[0.10000000149012,0.10000000149012,0.10000000149012,1],"metallicFactor":0,"roughnessFactor":0.95},"emissiveFactor":[0,0,0],"alphaMode":"OPAQUE","doubleSided":false},{"name":"mat18","pbrMetallicRoughness":{"baseColorFactor":[1,0.86382979154587,0.68000000715256,1],"metallicFactor":0,"roughnessFactor":0.95},"emissiveFactor":[0,0,0],"alphaMode":"OPAQUE","doubleSided":false},{"name":"mat19","pbrMetallicRoughness":{"baseColorFactor":[0.87000000476837,0.60000002384186,0.27000001072884,1],"metallicFactor":0,"roughnessFactor":0.95},"emissiveFactor":[0,0,0],"alphaMode":"OPAQUE","doubleSided":false},{"name":"mat22","pbrMetallicRoughness":{"baseColorFactor":[0.62000000476837,0.62000000476837,0.62000000476837,1],"metallicFactor":0,"roughnessFactor":0.95},"emissiveFactor":[0,0,0],"alphaMode":"OPAQUE","doubleSided":false},{"name":"Mat.1","pbrMetallicRoughness":{"baseColorFactor":[0.14000000059605,0.14000000059605,0.14000000059605,1],"metallicFactor":0,"roughnessFactor":1},"emissiveFactor":[0,0,0],"alphaMode":"OPAQUE","doubleSided":false},{"name":"mat8_1","pbrMetallicRoughness":{"baseColorFactor":[0.95999997854233,0.25999999046326,0.20999999344349,1],"metallicFactor":0,"roughnessFactor":0.95},"emissiveFactor":[0,0,0],"alphaMode":"OPAQUE","doubleSided":false},{"name":"mat9","pbrMetallicRoughness":{"baseColorFactor":[0.55000001192093,0.75999999046326,0.28999999165535,1],"metallicFactor":0,"roughnessFactor":0.95},"emissiveFactor":[0,0,0],"alphaMode":"OPAQUE","doubleSided":false},{"name":"mat12_1","pbrMetallicRoughness":{"baseColorFactor":[1,0.9200000166893,0.23000000417233,1],"metallicFactor":0,"roughnessFactor":0.95},"emissiveFactor":[0,0,0],"alphaMode":"OPAQUE","doubleSided":false},{"name":"mat21_1","pbrMetallicRoughness":{"baseColorFactor":[1,1,1,1],"metallicFactor":0,"roughnessFactor":0.95},"emissiveFactor":[0,0,0],"alphaMode":"OPAQUE","doubleSided":false},{"name":"mat8_2","pbrMetallicRoughness":{"baseColorFactor":[0.95999997854233,0.25999999046326,0.20999999344349,1],"metallicFactor":0,"roughnessFactor":0.95},"emissiveFactor":[0,0,0],"alphaMode":"OPAQUE","doubleSided":false},{"name":"mat16","pbrMetallicRoughness":{"baseColorFactor":[0.46999999880791,0.56000000238419,0.61000001430511,1],"metallicFactor":0,"roughnessFactor":0.95},"emissiveFactor":[0,0,0],"alphaMode":"OPAQUE","doubleSided":false},{"name":"mat12_2","pbrMetallicRoughness":{"baseColorFactor":[1,0.9200000166893,0.23000000417233,1],"metallicFactor":0,"roughnessFactor":0.95},"emissiveFactor":[0,0,0],"alphaMode":"OPAQUE","doubleSided":false},{"name":"mat21_2","pbrMetallicRoughness":{"baseColorFactor":[1,1,1,1],"metallicFactor":0,"roughnessFactor":0.95},"emissiveFactor":[0,0,0],"alphaMode":"OPAQUE","doubleSided":false},{"name":"mat10","pbrMetallicRoughness":{"baseColorFactor":[0.30000001192093,0.68999999761581,0.31000000238419,1],"metallicFactor":0,"roughnessFactor":0.95},"emissiveFactor":[0,0,0],"alphaMode":"OPAQUE","doubleSided":false},{"name":"mat20_1","pbrMetallicRoughness":{"baseColorFactor":[0.46999999880791,0.33000001311302,0.28000000119209,1],"metallicFactor":0,"roughnessFactor":0.95},"emissiveFactor":[0,0,0],"alphaMode":"OPAQUE","doubleSided":false},{"name":"mat15","pbrMetallicRoughness":{"baseColorFactor":[0.81000000238419,0.85000002384186,0.86000001430511,1],"metallicFactor":0,"roughnessFactor":0.95},"emissiveFactor":[0,0,0],"alphaMode":"OPAQUE","doubleSided":false},{"name":"mat17","pbrMetallicRoughness":{"baseColorFactor":[0.27000001072884,0.34999999403954,0.38999998569489,1],"metallicFactor":0,"roughnessFactor":0.95},"emissiveFactor":[0,0,0],"alphaMode":"OPAQUE","doubleSided":false},{"name":"mat23_1","pbrMetallicRoughness":{"baseColorFactor":[0.10000000149012,0.10000000149012,0.10000000149012,1],"metallicFactor":0,"roughnessFactor":0.95},"emissiveFactor":[0,0,0],"alphaMode":"OPAQUE","doubleSided":false},{"name":"default","pbrMetallicRoughness":{"baseColorFactor":[1,1,1,1],"metallicFactor":0,"roughnessFactor":1},"emissiveFactor":[0,0,0],"alphaMode":"OPAQUE","doubleSided":false},{"name":"Mat","pbrMetallicRoughness":{"baseColorFactor":[0.97000002861023,0.97000002861023,0.97000002861023,1],"metallicFactor":0,"roughnessFactor":0.95},"emissiveFactor":[0,0,0],"alphaMode":"OPAQUE","doubleSided":false}],"meshes":[{"name":"Scene.1-Mesh","primitives":[{"attributes":{"POSITION":0,"NORMAL":1,"TEXCOORD_0":2},"indices":3,"material":0,"mode":4},{"attributes":{"POSITION":0,"NORMAL":1,"TEXCOORD_0":2},"indices":4,"material":1,"mode":4},{"attributes":{"POSITION":0,"NORMAL":1,"TEXCOORD_0":2},"indices":5,"material":2,"mode":4},{"attributes":{"POSITION":0,"NORMAL":1,"TEXCOORD_0":2},"indices":6,"material":3,"mode":4},{"attributes":{"POSITION":0,"NORMAL":1,"TEXCOORD_0":2},"indices":7,"material":4,"mode":4},{"attributes":{"POSITION":0,"NORMAL":1,"TEXCOORD_0":2},"indices":8,"material":5,"mode":4},{"attributes":{"POSITION":0,"NORMAL":1,"TEXCOORD_0":2},"indices":9,"material":6,"mode":4},{"attributes":{"POSITION":0,"NORMAL":1,"TEXCOORD_0":2},"indices":10,"material":7,"mode":4},{"attributes":{"POSITION":0,"NORMAL":1,"TEXCOORD_0":2},"indices":11,"material":8,"mode":4},{"attributes":{"POSITION":0,"NORMAL":1,"TEXCOORD_0":2},"indices":12,"material":9,"mode":4},{"attributes":{"POSITION":0,"NORMAL":1,"TEXCOORD_0":2},"indices":13,"material":10,"mode":4},{"attributes":{"POSITION":0,"NORMAL":1,"TEXCOORD_0":2},"indices":14,"material":11,"mode":4},{"attributes":{"POSITION":0,"NORMAL":1,"TEXCOORD_0":2},"indices":15,"material":12,"mode":4},{"attributes":{"POSITION":0,"NORMAL":1,"TEXCOORD_0":2},"indices":16,"material":13,"mode":4},{"attributes":{"POSITION":0,"NORMAL":1,"TEXCOORD_0":2},"indices":17,"material":14,"mode":4},{"attributes":{"POSITION":0,"NORMAL":1,"TEXCOORD_0":2},"indices":18,"material":15,"mode":4},{"attributes":{"POSITION":0,"NORMAL":1,"TEXCOORD_0":2},"indices":19,"material":16,"mode":4},{"attributes":{"POSITION":0,"NORMAL":1,"TEXCOORD_0":2},"indices":20,"material":17,"mode":4},{"attributes":{"POSITION":0,"NORMAL":1,"TEXCOORD_0":2},"indices":21,"material":18,"mode":4},{"attributes":{"POSITION":0,"NORMAL":1,"TEXCOORD_0":2},"indices":22,"material":19,"mode":4},{"attributes":{"POSITION":0,"NORMAL":1,"TEXCOORD_0":2},"indices":23,"material":20,"mode":4},{"attributes":{"POSITION":0,"NORMAL":1,"TEXCOORD_0":2},"indices":24,"material":21,"mode":4},{"attributes":{"POSITION":0,"NORMAL":1,"TEXCOORD_0":2},"indices":25,"material":22,"mode":4},{"attributes":{"POSITION":0,"NORMAL":1,"TEXCOORD_0":2},"indices":26,"material":23,"mode":4},{"attributes":{"POSITION":0,"NORMAL":1,"TEXCOORD_0":2},"indices":27,"material":24,"mode":4}]}],"nodes":[{"name":"Scene.1","mesh":0}],"scene":0,"scenes":[{"nodes":[0]}]}
