{
  "accessors": [
    {
      "bufferView": 0,
      "byteOffset": 0,
      "componentType": 5123,
      "count": 33,
      "max": [
        32.0
      ],
      "min": [
        0.0
      ],
      "name": "buffer-0-accessor-indices-buffer-0-mesh-0",
      "type": "SCALAR"
    },
    {
      "bufferView": 2,
      "byteOffset": 0,
      "componentType": 5126,
      "count": 33,
      "max": [
        278362.625,
        95539.4765625,
        0.0
      ],
      "min": [
        0.0,
        0.0,
        -411324.28125
      ],
      "name": "buffer-0-accessor-position-buffer-0-mesh-0",
      "type": "VEC3"
    },
    {
      "bufferView": 2,
      "byteOffset": 396,
      "componentType": 5126,
      "count": 33,
      "max": [
        0.19769999384880066,
        0.054999999701976776,
        0.9994999766349792
      ],
      "min": [
        -0.23350000381469727,
        -0.03449999913573265,
        0.0
      ],
      "name": "buffer-0-accessor-normal-buffer-0-mesh-0",
      "type": "VEC3"
    },
    {
      "bufferView": 1,
      "byteOffset": 0,
      "componentType": 5126,
      "count": 33,
      "max": [
        0.40049999952316284,
        0.0
      ],
      "min": [
        0.0,
        -0.6327000260353088
      ],
      "name": "buffer-0-accessor-texcoord-buffer-0-mesh-0",
      "type": "VEC2"
    },
    {
      "bufferView": 3,
      "byteOffset": 0,
      "componentType": 5126,
      "count": 0,
      "max": [
        0.0,
        0.0,
        0.0,
        0.0
      ],
      "min": [
        0.0,
        0.0,
        0.0,
        0.0
      ],
      "name": "buffer-0-accessor-color-buffer-0-mesh-0",
      "type": "VEC4"
    },
    {
      "bufferView": 0,
      "byteOffset": 66,
      "componentType": 5123,
      "count": 168,
      "max": [
        167.0
      ],
      "min": [
        0.0
      ],
      "name": "buffer-0-accessor-indices-buffer-0-mesh-0",
      "type": "SCALAR"
    },
    {
      "bufferView": 2,
      "byteOffset": 792,
      "componentType": 5126,
      "count": 168,
      "max": [
        280547.75,
        220314.03125,
        0.0
      ],
      "min": [
        -124461.75,
        0.0,
        -536369.6875
      ],
      "name": "buffer-0-accessor-position-buffer-0-mesh-0",
      "type": "VEC3"
    },
    {
      "bufferView": 2,
      "byteOffset": 2808,
      "componentType": 5126,
      "count": 168,
      "max": [
        0.9375,
        0.6114000082015991,
        0.9038000106811523
      ],
      "min": [
        -0.9107000231742859,
        -0.14650000631809235,
        -0.9057000279426575
      ],
      "name": "buffer-0-accessor-normal-buffer-0-mesh-0",
      "type": "VEC3"
    },
    {
      "bufferView": 1,
      "byteOffset": 264,
      "componentType": 5126,
      "count": 168,
      "max": [
        1.0,
        0.0
      ],
      "min": [
        0.0,
        -1.0
      ],
      "name": "buffer-0-accessor-texcoord-buffer-0-mesh-0",
      "type": "VEC2"
    },
    {
      "bufferView": 3,
      "byteOffset": 0,
      "componentType": 5126,
      "count": 0,
      "max": [
        0.0,
        0.0,
        0.0,
        0.0
      ],
      "min": [
        0.0,
        0.0,
        0.0,
        0.0
      ],
      "name": "buffer-0-accessor-color-buffer-0-mesh-0",
      "type": "VEC4"
    },
    {
      "bufferView": 0,
      "byteOffset": 402,
      "componentType": 5123,
      "count": 276,
      "max": [
        275.0
      ],
      "min": [
        0.0
      ],
      "name": "buffer-0-accessor-indices-buffer-0-mesh-0",
      "type": "SCALAR"
    },
    {
      "bufferView": 2,
      "byteOffset": 4824,
      "componentType": 5126,
      "count": 276,
      "max": [
        223436.46875,
        316454.03125,
        0.0
      ],
      "min": [
        0.0,
        0.0,
        -416193.46875
      ],
      "name": "buffer-0-accessor-position-buffer-0-mesh-0",
      "type": "VEC3"
    },
    {
      "bufferView": 2,
      "byteOffset": 8136,
      "componentType": 5126,
      "count": 276,
      "max": [
        1.0,
        1.0,
        0.9976999759674072
      ],
      "min": [
        -0.9907000064849854,
        -1.0,
        -0.9976999759674072
      ],
      "name": "buffer-0-accessor-normal-buffer-0-mesh-0",
      "type": "VEC3"
    },
    {
      "bufferView": 1,
      "byteOffset": 1608,
      "componentType": 5126,
      "count": 276,
      "max": [
        0.9761999845504761,
        0.0
      ],
      "min": [
        -0.032600000500679016,
        -1.0
      ],
      "name": "buffer-0-accessor-texcoord-buffer-0-mesh-0",
      "type": "VEC2"
    },
    {
      "bufferView": 3,
      "byteOffset": 0,
      "componentType": 5126,
      "count": 0,
      "max": [
        0.0,
        0.0,
        0.0,
        0.0
      ],
      "min": [
        0.0,
        0.0,
        0.0,
        0.0
      ],
      "name": "buffer-0-accessor-color-buffer-0-mesh-0",
      "type": "VEC4"
    },
    {
      "bufferView": 0,
      "byteOffset": 954,
      "componentType": 5123,
      "count": 36,
      "max": [
        35.0
      ],
      "min": [
        0.0
      ],
      "name": "buffer-0-accessor-indices-buffer-0-mesh-0",
      "type": "SCALAR"
    },
    {
      "bufferView": 2,
      "byteOffset": 11448,
      "componentType": 5126,
      "count": 36,
      "max": [
        222878.96875,
        315784.6875,
        0.0
      ],
      "min": [
        0.0,
        0.0,
        -475677.46875
      ],
      "name": "buffer-0-accessor-position-buffer-0-mesh-0",
      "type": "VEC3"
    },
    {
      "bufferView": 2,
      "byteOffset": 11880,
      "componentType": 5126,
      "count": 36,
      "max": [
        0.9063000082969666,
        0.7314000129699707,
        0.9063000082969666
      ],
      "min": [
        -0.9063000082969666,
        -1.0,
        -0.6180999875068665
      ],
      "name": "buffer-0-accessor-normal-buffer-0-mesh-0",
      "type": "VEC3"
    },
    {
      "bufferView": 1,
      "byteOffset": 3816,
      "componentType": 5126,
      "count": 36,
      "max": [
        1.0,
        0.0
      ],
      "min": [
        0.0,
        -1.0
      ],
      "name": "buffer-0-accessor-texcoord-buffer-0-mesh-0",
      "type": "VEC2"
    },
    {
      "bufferView": 3,
      "byteOffset": 0,
      "componentType": 5126,
      "count": 0,
      "max": [
        0.0,
        0.0,
        0.0,
        0.0
      ],
      "min": [
        0.0,
        0.0,
        0.0,
        0.0
      ],
      "name": "buffer-0-accessor-color-buffer-0-mesh-0",
      "type": "VEC4"
    }
  ],
  "asset": {
    "generator": "Obj2GltfConverter",
    "version": "2.0"
  },
  "bufferViews": [
    {
      "buffer": 0,
      "byteLength": 1026,
      "byteOffset": 0,
      "byteStride": 0,
      "name": "buffer-0-bufferview-ushort",
      "target": 34963
    },
    {
      "buffer": 0,
      "byteLength": 4104,
      "byteOffset": 1032,
      "byteStride": 8,
      "name": "buffer-0-bufferview-vec2",
      "target": 34962
    },
    {
      "buffer": 0,
      "byteLength": 12312,
      "byteOffset": 5136,
      "byteStride": 12,
      "name": "buffer-0-bufferview-vec3",
      "target": 34962
    },
    {
      "buffer": 0,
      "byteLength": 0,
      "byteOffset": 17456,
      "byteStride": 16,
      "name": "buffer-0-bufferview-vec4",
      "target": 34962
    }
  ],
  "buffers": [
    {
      "byteLength": 17456,
      "name": "buffer-0",
      "uri": "tent/tent.bin"
    }
  ],
  "materials": [
    {
      "alphaMode": "OPAQUE",
      "doubleSided": true,
      "name": "02___Default",
      "pbrMetallicRoughness": {
        "baseColorFactor": [
          0.5686,
          0.4392,
          0.4157,
          1.0
        ],
        "metallicFactor": 0.0,
        "roughnessFactor": 0.9699476628648295
      }
    },
    {
      "alphaMode": "OPAQUE",
      "doubleSided": true,
      "name": "_crayfishdiffuse",
      "pbrMetallicRoughness": {
        "baseColorFactor": [
          0.3529,
          0.1608,
          0.1098,
          1.0
        ],
        "metallicFactor": 0.0,
        "roughnessFactor": 0.9124375732201923
      }
    },
    {
      "alphaMode": "OPAQUE",
      "doubleSided": true,
      "name": "03___Default",
      "pbrMetallicRoughness": {
        "baseColorFactor": [
          0.5882,
          0.5882,
          0.5882,
          1.0
        ],
        "metallicFactor": 0.0,
        "roughnessFactor": 0.9699476628648295
      }
    },
    {
      "alphaMode": "OPAQUE",
      "doubleSided": true,
      "name": "07___Default",
      "pbrMetallicRoughness": {
        "baseColorFactor": [
          0.0863,
          0.9255,
          1.0,
          1.0
        ],
        "metallicFactor": 0.0,
        "roughnessFactor": 0.9699476628648295
      }
    }
  ],
  "meshes": [
    {
      "name": "buffer-0-mesh-0",
      "primitives": [
        {
          "attributes": {
            "POSITION": 1,
            "NORMAL": 2,
            "TEXCOORD_0": 3
          },
          "indices": 0,
          "material": 0,
          "mode": 4
        },
        {
          "attributes": {
            "POSITION": 6,
            "NORMAL": 7,
            "TEXCOORD_0": 8
          },
          "indices": 5,
          "material": 1,
          "mode": 4
        },
        {
          "attributes": {
            "POSITION": 11,
            "NORMAL": 12,
            "TEXCOORD_0": 13
          },
          "indices": 10,
          "material": 2,
          "mode": 4
        },
        {
          "attributes": {
            "POSITION": 16,
            "NORMAL": 17,
            "TEXCOORD_0": 18
          },
          "indices": 15,
          "material": 3,
          "mode": 4
        }
      ]
    }
  ],
  "nodes": [
    {
      "mesh": 0,
      "name": "node-0"
    }
  ],
  "scenes": [
    {
      "name": "scene-0",
      "nodes": [
        0
      ]
    }
  ],
   "extra" : {
         "ground" : -100,
         "scale" : 10,
         "rotationX" : 0,
         "rotationY" : 0,
         "rotationZ" : 0
   }
}