{
	"accessors" : 
	[
		{
			"bufferView" : 2,
			"byteOffset" : 0,
			"componentType" : 5126,
			"count" : 5144,
			"max" : 
			[
				1,
				1,
				1,
				1
			],
			"min" : 
			[
				0.006584956776350737,
				0.006584956776350737,
				0.006584956776350737,
				1
			],
			"name" : "accessor_color_m0-PolyPaper8_-51972",
			"type" : "VEC4"
		},
		{
			"bufferView" : 0,
			"byteOffset" : 0,
			"componentType" : 5123,
			"count" : 7404,
			"max" : 
			[
				5143
			],
			"min" : 
			[
				0
			],
			"name" : "accessor_indices_0_m0-PolyPaper8_-51972",
			"type" : "SCALAR"
		},
		{
			"bufferView" : 1,
			"byteOffset" : 61728,
			"componentType" : 5126,
			"count" : 5144,
			"max" : 
			[
				0.9997686,
				0.9999144,
				0.9997473
			],
			"min" : 
			[
				-0.9998245,
				-0.9998726,
				-0.9999236
			],
			"name" : "accessor_normal_m0-PolyPaper8_-51972",
			"type" : "VEC3"
		},
		{
			"bufferView" : 1,
			"byteOffset" : 0,
			"componentType" : 5126,
			"count" : 5144,
			"max" : 
			[
				0.4603269,
				2.159013,
				-0.0494461
			],
			"min" : 
			[
				-0.3546068,
				1.18747,
				-1.21521
			],
			"name" : "accessor_position_m0-PolyPaper8_-51972",
			"type" : "VEC3"
		}
	],
	"asset" : 
	{
		"copyright" : "Unknown",
		"generator" : "glTF 1-to-2 Upgrader for Google Blocks",
		"version" : "2.0"
	},
	"bufferViews" : 
	[
		{
			"buffer" : 0,
			"byteLength" : 14808,
			"byteOffset" : 0,
			"name" : "ushortBufferView",
			"target" : 34963
		},
		{
			"buffer" : 0,
			"byteLength" : 123456,
			"byteOffset" : 14808,
			"byteStride" : 12,
			"name" : "vec3BufferView",
			"target" : 34962
		},
		{
			"buffer" : 0,
			"byteLength" : 82304,
			"byteOffset" : 138264,
			"byteStride" : 16,
			"name" : "vec4BufferView",
			"target" : 34962
		}
	],
	"buffers" : 
	[
		{
			"byteLength" : 220568,
			"name" : "model",
			"uri" : "bicycle/bicycle.bin"
		}
	],
	"materials" : 
	[
		{
			"alphaMode" : "OPAQUE",
			"doubleSided" : false,
			"name" : "BlocksPaper",
			"pbrMetallicRoughness" : 
			{
				"baseColorFactor" : 
				[
					1,
					1,
					1,
					1
				],
				"metallicFactor" : 0,
				"roughnessFactor" : 0.6
			}
		},
		{
			"alphaMode" : "BLEND",
			"doubleSided" : false,
			"name" : "BlocksGlass",
			"pbrMetallicRoughness" : 
			{
				"baseColorFactor" : 
				[
					0.2,
					0.2,
					1,
					0.3
				],
				"metallicFactor" : 1,
				"roughnessFactor" : 0.4
			}
		},
		{
			"alphaMode" : "OPAQUE",
			"doubleSided" : true,
			"name" : "BlocksGem",
			"pbrMetallicRoughness" : 
			{
				"baseColorFactor" : 
				[
					1,
					0.4,
					1,
					1
				],
				"metallicFactor" : 0,
				"roughnessFactor" : 0.1
			}
		}
	],
	"meshes" : 
	[
		{
			"name" : "mesh_m0-PolyPaper8_-51972",
			"primitives" : 
			[
				{
					"attributes" : 
					{
						"COLOR_0" : 0,
						"NORMAL" : 2,
						"POSITION" : 3
					},
					"indices" : 1,
					"material" : 0,
					"mode" : 4
				}
			]
		}
	],
	"nodes" : 
	[
		{
			"matrix" : 
			[
				1,
				0,
				0,
				0,
				0,
				1,
				0,
				0,
				0,
				0,
				1,
				0,
				0,
				0,
				0,
				1
			],
			"mesh" : 0,
			"name" : "node_MeshObject-1416741632-PolyPaper8"
		}
	],
	"scene" : 0,
	"scenes" : 
	[
		{
			"name" : "defaultScene",
			"nodes" : 
			[
				0
			]
		}
	],
   "extra" : {
         "ground" : -100,
         "scale" : 10,
         "rotationX" : 0,
         "rotationY" : 0,
         "rotationZ" : 0
   }
}